<svg viewBox="0 0 800 1000" xmlns="http://www.w3.org/2000/svg">
<defs><linearGradient id="bg9" x1="0%" y1="0%" x2="100%" y2="100%">
<stop offset="0%" stop-color="#0A0E1F"/>
<stop offset="100%" stop-color="#161B33"/>
</linearGradient></defs>
<rect width="800" height="1000" fill="url(#bg9)"/>
<circle cx="370.4" cy="261.3" r="1.3" fill="#E3C05A" opacity="0.92"/>
<circle cx="5.1" cy="351.9" r="3.2" fill="#E3C05A" opacity="0.45"/>
<circle cx="443.4" cy="431.7" r="1.1" fill="#E3C05A" opacity="0.63"/>
<circle cx="562.8" cy="316.4" r="2.8" fill="#E3C05A" opacity="0.49"/>
<circle cx="190.4" cy="77.7" r="2.3" fill="#E3C05A" opacity="0.95"/>
<circle cx="472.3" cy="541.9" r="2.0" fill="#E3C05A" opacity="0.85"/>
<circle cx="81.3" cy="203.8" r="2.7" fill="#E3C05A" opacity="0.84"/>
<circle cx="337.4" cy="61.4" r="1.7" fill="#E3C05A" opacity="0.53"/>
<circle cx="224.9" cy="566.7" r="1.5" fill="#E3C05A" opacity="0.93"/>
<circle cx="703.5" cy="38.4" r="1.9" fill="#E3C05A" opacity="0.70"/>
<circle cx="18.8" cy="297.3" r="3.3" fill="#E3C05A" opacity="0.47"/>
<circle cx="477.5" cy="84.9" r="2.4" fill="#E3C05A" opacity="0.94"/>
<circle cx="162.4" cy="5.8" r="1.2" fill="#E3C05A" opacity="0.72"/>
<circle cx="14.0" cy="59.4" r="2.2" fill="#E3C05A" opacity="0.95"/>
<circle cx="336.1" cy="278.7" r="2.6" fill="#E3C05A" opacity="0.46"/>
<circle cx="463.8" cy="120.8" r="2.5" fill="#E3C05A" opacity="0.97"/>
<circle cx="43.3" cy="388.5" r="2.5" fill="#E3C05A" opacity="0.49"/>
<circle cx="214.6" cy="696.4" r="3.5" fill="#E3C05A" opacity="0.47"/>
<circle cx="564.4" cy="665.6" r="1.6" fill="#E3C05A" opacity="0.77"/>
<circle cx="34.4" cy="256.2" r="2.7" fill="#E3C05A" opacity="0.75"/>
<circle cx="619.7" cy="60.7" r="1.9" fill="#E3C05A" opacity="0.92"/>
<circle cx="467.3" cy="315.9" r="2.0" fill="#E3C05A" opacity="0.99"/>
<circle cx="459.5" cy="12.9" r="3.0" fill="#E3C05A" opacity="0.60"/>
<circle cx="346.9" cy="149.4" r="2.1" fill="#E3C05A" opacity="0.59"/>
<circle cx="71.1" cy="440.7" r="1.3" fill="#E3C05A" opacity="0.87"/>
<circle cx="20.3" cy="546.5" r="3.0" fill="#E3C05A" opacity="0.70"/>
<circle cx="567.6" cy="173.8" r="2.8" fill="#E3C05A" opacity="0.66"/>
<circle cx="184.8" cy="674.9" r="2.0" fill="#E3C05A" opacity="0.62"/>
<circle cx="687.9" cy="258.6" r="2.7" fill="#E3C05A" opacity="0.50"/>
<circle cx="674.6" cy="181.2" r="1.1" fill="#E3C05A" opacity="0.99"/>
<circle cx="138.2" cy="662.6" r="3.5" fill="#E3C05A" opacity="0.76"/>
<circle cx="9.5" cy="42.6" r="1.5" fill="#E3C05A" opacity="0.63"/>
<circle cx="489.2" cy="676.5" r="1.9" fill="#E3C05A" opacity="0.48"/>
<circle cx="449.5" cy="96.1" r="1.2" fill="#E3C05A" opacity="0.73"/>
<circle cx="556.8" cy="45.9" r="2.1" fill="#E3C05A" opacity="0.82"/>
<circle cx="611.3" cy="268.1" r="3.2" fill="#E3C05A" opacity="0.50"/>
<circle cx="572.4" cy="540.2" r="3.2" fill="#E3C05A" opacity="0.70"/>
<circle cx="79.4" cy="33.9" r="2.3" fill="#E3C05A" opacity="0.50"/>
<circle cx="503.7" cy="59.0" r="3.0" fill="#E3C05A" opacity="0.53"/>
<circle cx="10.4" cy="123.1" r="2.1" fill="#E3C05A" opacity="0.74"/>
<circle cx="310.6" cy="121.1" r="2.2" fill="#E3C05A" opacity="0.97"/>
<circle cx="428.3" cy="658.9" r="1.1" fill="#E3C05A" opacity="1.00"/>
<circle cx="711.2" cy="381.0" r="2.3" fill="#E3C05A" opacity="0.72"/>
<circle cx="727.6" cy="45.9" r="2.6" fill="#E3C05A" opacity="0.73"/>
<circle cx="240.3" cy="507.4" r="2.8" fill="#E3C05A" opacity="0.46"/>
<circle cx="559.6" cy="317.5" r="2.2" fill="#E3C05A" opacity="0.78"/>
<circle cx="42.4" cy="422.0" r="1.9" fill="#E3C05A" opacity="0.93"/>
<circle cx="184.9" cy="576.2" r="2.8" fill="#E3C05A" opacity="0.77"/>
<circle cx="700.7" cy="25.2" r="2.5" fill="#E3C05A" opacity="0.77"/>
<circle cx="542.4" cy="284.7" r="1.2" fill="#E3C05A" opacity="0.51"/>
<circle cx="486.5" cy="126.9" r="1.2" fill="#E3C05A" opacity="0.61"/>
<circle cx="376.2" cy="374.9" r="1.1" fill="#E3C05A" opacity="0.87"/>
<circle cx="267.1" cy="548.0" r="1.0" fill="#E3C05A" opacity="0.97"/>
<circle cx="472.2" cy="683.5" r="3.5" fill="#E3C05A" opacity="0.90"/>
<circle cx="85.0" cy="244.1" r="1.6" fill="#E3C05A" opacity="0.87"/>
<circle cx="153.7" cy="154.8" r="1.3" fill="#E3C05A" opacity="0.47"/>
<circle cx="750.5" cy="683.3" r="1.9" fill="#E3C05A" opacity="0.84"/>
<circle cx="374.0" cy="365.4" r="1.9" fill="#E3C05A" opacity="0.78"/>
<circle cx="188.9" cy="179.5" r="2.3" fill="#E3C05A" opacity="0.52"/>
<circle cx="351.4" cy="660.7" r="1.1" fill="#E3C05A" opacity="0.46"/>
<circle cx="576.0" cy="220.0" r="70" fill="#F0E0A0" opacity="0.9"/>
<path d="M 714.6,850.0 Q 714.6,850.0 629.9,902.8 Q 545.2,955.5 505.8,1004.9 Q 466.4,1054.2 383.1,1106.2 Q 299.9,1158.1 237.0,1086.1 Q 174.2,1014.1 182.5,932.0 Q 190.8,850.0 222.7,797.2 Q 254.6,744.4 293.5,693.0 Q 332.3,641.6 400.7,639.5 Q 469.1,637.3 561.8,651.2 Q 654.6,665.1 684.6,757.5 Z" fill="#2A2F4A" opacity="0.85"/>
</svg>